<svg id="Layer_1" height="512" viewBox="0 0 128 128" width="512" xmlns="http://www.w3.org/2000/svg" data-name="Layer 1"><path d="m91.463 38.635a1.75 1.75 0 0 1 -1.75-1.75 19.85 19.85 0 0 0 -19.828-19.828h-21.954a1.75 1.75 0 0 1 0-3.5h21.954a23.354 23.354 0 0 1 23.328 23.328 1.75 1.75 0 0 1 -1.75 1.75z" fill="#ed3a1b"/><path d="m83.412 38.635a1.75 1.75 0 0 1 -1.75-1.75 11.47 11.47 0 0 0 -11.457-11.457h-30.325a1.75 1.75 0 0 1 0-3.5h30.325a14.974 14.974 0 0 1 14.957 14.957 1.75 1.75 0 0 1 -1.75 1.75z" fill="#ed3a1b"/><g fill="#475a61"><path d="m57.358 60.9a1.75 1.75 0 0 0 -1.75 1.75v8.057a1.75 1.75 0 0 0 3.5 0v-8.059a1.75 1.75 0 0 0 -1.75-1.748z"/><path d="m69.863 62.122a1.75 1.75 0 1 0 -3.424.727l1.546 7.287a1.75 1.75 0 0 0 3.424-.727z"/><path d="m83.365 66.989-3.59-7.814a1.75 1.75 0 1 0 -3.18 1.461l3.59 7.814a1.75 1.75 0 1 0 3.18-1.461z"/></g><path d="m56.808 95.824a16.588 16.588 0 0 1 -16.571-17.339c.395-8.952 8.13-15.837 17.091-15.837h7.537a33.725 33.725 0 0 0 32.772-25.763h-41.2a34.94 34.94 0 0 0 -34.937 34.94 34.94 34.94 0 0 0 34.94 34.94h34.94a10.941 10.941 0 0 0 -10.943-10.941z" fill="#fd9025"/><path d="m22.4 63.945 19.107 9.028a17.26 17.26 0 0 1 15.851-10.324l-12.986-23.623a35 35 0 0 0 -21.972 24.919z" fill="#fc642b"/><path d="m56.438 106.764h4.706v-10.94h-4.336a16.553 16.553 0 0 1 -13.563-7.064l-8.527 10.422a34.781 34.781 0 0 0 21.72 7.582z" fill="#fc642b"/><path d="m75.477 41.149a2.543 2.543 0 1 0 2.543 2.543 2.546 2.546 0 0 0 -2.543-2.543z" fill="#fff5f5"/><path d="m106.5 112.693a1.75 1.75 0 0 1 -1.75-1.75 4.184 4.184 0 0 0 -4.179-4.179h-9.193a1.75 1.75 0 0 1 0-3.5h9.194a7.687 7.687 0 0 1 7.679 7.679 1.75 1.75 0 0 1 -1.751 1.75z" fill="#fd9025"/></svg>